<svg width="25" height="33" viewBox="0 0 25 33" fill="none" xmlns="http://www.w3.org/2000/svg">
<path fill-rule="evenodd" clip-rule="evenodd" d="M12.5003 31.9306C13.7316 31.9306 19.595 24.5671 21.0408 22.2215C23.2633 18.6159 24.6355 16.4828 24.6355 12.5024C24.6355 5.80031 19.2023 0.367188 12.5003 0.367188C5.79817 0.367188 0.365051 5.80031 0.365051 12.5024C0.365051 16.5035 1.63648 18.6224 3.85155 22.2215C5.39542 24.73 11.269 31.9306 12.5003 31.9306Z" fill="#0333FF"/>
<path fill-rule="evenodd" clip-rule="evenodd" d="M12.9438 32.1723C12.813 32.2366 12.6587 32.293 12.5 32.293C12.3431 32.293 12.1898 32.2384 12.0589 32.1755C11.9221 32.1097 11.7762 32.0183 11.6256 31.9104C11.3242 31.6943 10.9737 31.39 10.5944 31.0277C9.83399 30.3016 8.92727 29.313 8.01612 28.252C6.19662 26.1334 4.32762 23.6891 3.54062 22.4103C1.32357 18.808 0 16.6122 0 12.5C0 5.59644 5.59644 0 12.5 0C19.4036 0 25 5.59644 25 12.5C25 16.495 23.6399 18.7 21.5136 22.147C21.4599 22.234 21.4058 22.3219 21.3511 22.4105C20.6141 23.6063 18.7731 26.0497 16.9687 28.1885C16.0651 29.2594 15.1629 30.2633 14.4053 31.0021C14.0273 31.3708 13.6777 31.681 13.3768 31.9014C13.2266 32.0116 13.0808 32.105 12.9438 32.1723ZM21.0406 22.2191C19.5948 24.5647 13.7313 31.9282 12.5 31.9282C11.2687 31.9282 5.39516 24.7276 3.85129 22.2191C1.63623 18.62 0.364793 16.5011 0.364793 12.5C0.364793 5.79791 5.79791 0.364793 12.5 0.364793C19.2021 0.364793 24.6352 5.79791 24.6352 12.5C24.6352 16.3908 23.3242 18.5165 21.1894 21.9777C21.1402 22.0575 21.0906 22.1379 21.0406 22.2191Z" fill="white"/>
<path fill-rule="evenodd" clip-rule="evenodd" d="M12.6563 20.9395C17.2299 20.9395 20.9376 17.2318 20.9376 12.6582C20.9376 8.0846 17.2299 4.37695 12.6563 4.37695C8.0827 4.37695 4.37506 8.0846 4.37506 12.6582C4.37506 17.2318 8.0827 20.9395 12.6563 20.9395Z" fill="white"/>
<g clip-path="url(#clip0_2586_42677)">
<path fill-rule="evenodd" clip-rule="evenodd" d="M15.7079 9.84303C15.5836 9.94065 15.4222 10.0187 15.2277 10.0821C15.2649 10.4626 15.2221 10.8467 15.102 11.2097C14.9819 11.5727 14.7871 11.9065 14.5303 12.1897C14.2734 12.4729 13.9601 12.6992 13.6106 12.8541C13.261 13.009 12.8829 13.089 12.5006 13.089C12.1182 13.089 11.7401 13.009 11.3905 12.8541C11.041 12.6992 10.7277 12.4729 10.4708 12.1897C10.214 11.9065 10.0192 11.5727 9.89913 11.2097C9.77902 10.8467 9.73619 10.4626 9.77341 10.0821C9.57886 10.0187 9.41754 9.94065 9.29354 9.84303C9.13256 9.7163 9.02467 9.54709 9.01199 9.34364C9 9.15491 9.07467 8.99461 9.14934 8.88158C9.22305 8.77452 9.31058 8.67766 9.40966 8.59352C9.45761 8.55139 9.50488 8.51405 9.54872 8.48151C9.53571 8.4113 9.52132 8.32635 9.50693 8.22805C9.44625 7.7963 9.41649 7.36076 9.41788 6.92476C9.41788 6.81721 9.46378 6.73706 9.48501 6.70315C9.51173 6.66034 9.54324 6.62369 9.57201 6.59423C9.62921 6.53429 9.7032 6.47332 9.78437 6.41475C9.94878 6.29556 10.1748 6.16163 10.4434 6.03627C10.9787 5.78623 11.7141 5.55469 12.5006 5.55469C13.2873 5.55469 14.0224 5.78657 14.5577 6.03627C14.7886 6.14186 15.0092 6.26856 15.2167 6.41475C15.2979 6.47332 15.3719 6.53463 15.4291 6.59423C15.4579 6.62369 15.4894 6.66034 15.5161 6.70315C15.5373 6.73706 15.5832 6.81721 15.5832 6.92476C15.5832 7.47348 15.5387 7.91807 15.4942 8.22805C15.4798 8.32635 15.4654 8.4113 15.4524 8.48151C15.4962 8.51405 15.5438 8.55139 15.5918 8.59352C15.6774 8.66853 15.7754 8.76615 15.8518 8.88158C15.9268 8.99461 16.0011 9.15491 15.9895 9.34398C15.9768 9.54709 15.8689 9.7163 15.7079 9.84303ZM10.1036 7.03369C10.1087 7.4954 10.1471 7.86875 10.1851 8.12975C10.194 8.1914 10.2029 8.2462 10.2112 8.29484H14.7899C14.7985 8.2462 14.8071 8.19106 14.816 8.12975C14.8537 7.86875 14.8924 7.4954 14.8975 7.03369C14.8708 7.01115 14.8433 6.98967 14.815 6.96929C14.6913 6.87989 14.5036 6.76721 14.268 6.65726C13.7942 6.43599 13.1596 6.23973 12.5006 6.23973C11.8415 6.23973 11.2069 6.43599 10.7332 6.65726C10.4975 6.76721 10.3098 6.87989 10.1865 6.96895C10.158 6.98954 10.1304 7.01125 10.1036 7.03403V7.03369ZM10.0303 8.97988L10.0293 8.98057C9.97016 9.01996 9.91353 9.06297 9.85973 9.10935C9.79876 9.16279 9.75012 9.21485 9.72067 9.26006C9.71366 9.27023 9.70736 9.28087 9.70183 9.29191C9.70668 9.29634 9.7117 9.30057 9.7169 9.30459C9.76828 9.34501 9.87857 9.40426 10.0937 9.46283C10.1361 9.47448 10.1817 9.48544 10.2303 9.4964L10.2334 9.49708C10.4054 9.5351 10.617 9.56901 10.875 9.59573C11.2404 9.63375 11.7004 9.65875 12.2752 9.66423L12.5006 9.66492C13.6059 9.66492 14.3207 9.59607 14.768 9.49708L14.7708 9.4964C14.8197 9.48544 14.8653 9.47448 14.9078 9.46283C15.1225 9.4046 15.2332 9.34501 15.2842 9.30459C15.2894 9.30057 15.2944 9.29634 15.2993 9.29191C15.2938 9.28088 15.2877 9.27024 15.2808 9.26006C15.2409 9.20408 15.1941 9.15343 15.1414 9.10935C15.0877 9.06297 15.0312 9.01996 14.9722 8.98057L14.9708 8.97988H10.0303ZM12.4074 10.35C13.3123 10.35 14.0138 10.302 14.5516 10.2184C14.5692 10.4977 14.5297 10.7776 14.4354 11.0411C14.341 11.3045 14.1939 11.5459 14.003 11.7505C13.8121 11.955 13.5814 12.1185 13.3251 12.2307C13.0687 12.343 12.7922 12.4017 12.5124 12.4033C12.2326 12.4049 11.9554 12.3494 11.6978 12.2401C11.4402 12.1308 11.2076 11.97 11.0144 11.7677C10.8211 11.5653 10.6712 11.3256 10.5738 11.0633C10.4765 10.801 10.4337 10.5215 10.4482 10.2421C10.9493 10.3113 11.5915 10.35 12.4074 10.35ZM9.78711 16.8157C9.76927 16.9431 9.76034 17.0717 9.7604 17.2003V17.5429C9.76044 17.6182 9.73566 17.6914 9.68991 17.7512C9.64415 17.811 9.57997 17.854 9.50728 17.8737C9.43459 17.8933 9.35746 17.8885 9.2878 17.8599C9.21815 17.8313 9.15985 17.7805 9.12194 17.7155C8.8911 17.8407 8.62097 17.8725 8.36737 17.8042L7.70562 17.6268C7.44249 17.5561 7.21817 17.3839 7.082 17.1479C6.94583 16.9119 6.90896 16.6315 6.97948 16.3684L7.24528 15.3757C7.31584 15.1125 7.48805 14.8881 7.72405 14.7519C7.96004 14.6157 8.24048 14.5787 8.50369 14.6493L9.16544 14.8263C9.39561 14.888 9.58674 15.0233 9.71964 15.2C10.0367 14.7587 10.4544 14.3992 10.938 14.1514C11.4217 13.9036 11.9575 13.7747 12.5009 13.7751C13.044 13.7748 13.5795 13.9038 14.0629 14.1514C14.5463 14.3991 14.9638 14.7583 15.2808 15.1993C15.4185 15.0168 15.6133 14.8856 15.8343 14.8267L16.496 14.6496C16.7592 14.5791 17.0396 14.616 17.2756 14.7521C17.5116 14.8883 17.6838 15.1126 17.7545 15.3757L18.0206 16.3687C18.0555 16.4991 18.0644 16.635 18.0468 16.7688C18.0291 16.9026 17.9853 17.0316 17.9178 17.1484C17.8503 17.2653 17.7605 17.3677 17.6534 17.4499C17.5463 17.532 17.4241 17.5922 17.2938 17.6271L16.6324 17.8042C16.3792 17.8725 16.1095 17.8411 15.8788 17.7165C15.8408 17.7815 15.7824 17.8321 15.7127 17.8606C15.643 17.889 15.5659 17.8937 15.4933 17.874C15.4206 17.8542 15.3565 17.8111 15.3109 17.7512C15.2652 17.6914 15.2406 17.6181 15.2407 17.5429V17.2003C15.2408 17.0717 15.2318 16.9431 15.214 16.8157L13.4315 17.2935C13.3488 17.4706 13.2172 17.6204 13.0523 17.7254C12.8874 17.8304 12.696 17.8861 12.5006 17.8861C12.3051 17.8861 12.1137 17.8304 11.9488 17.7254C11.7839 17.6204 11.6523 17.4706 11.5696 17.2935L9.78711 16.8157ZM11.5141 16.5691C11.5601 16.4129 11.6424 16.2699 11.7543 16.1517C11.8663 16.0335 12.0046 15.9436 12.158 15.8892V14.4814C11.6776 14.5422 11.2218 14.729 10.837 15.0229C10.4521 15.3169 10.1519 15.7074 9.96694 16.155L11.5141 16.5694V16.5691ZM15.0342 16.1546C14.8491 15.7072 14.5489 15.3167 14.1641 15.0228C13.7792 14.7289 13.3235 14.5421 12.8431 14.4814V15.8888C13.1527 15.9984 13.3945 16.2519 13.487 16.5694L15.0342 16.155V16.1546ZM15.7696 15.908C15.7579 15.8646 15.7549 15.8192 15.7608 15.7746C15.7666 15.73 15.7812 15.687 15.8037 15.6481C15.8262 15.6091 15.8562 15.5749 15.8918 15.5476C15.9275 15.5202 15.9683 15.5001 16.0117 15.4884L16.6735 15.311C16.7612 15.2876 16.8546 15.2999 16.9332 15.3453C17.0118 15.3907 17.0692 15.4655 17.0927 15.5532L17.3588 16.5458C17.3705 16.5892 17.3735 16.6346 17.3676 16.6792C17.3618 16.7238 17.3472 16.7668 17.3247 16.8057C17.3022 16.8447 17.2722 16.8789 17.2366 16.9062C17.2009 16.9336 17.1601 16.9537 17.1167 16.9654L16.4549 17.1428C16.4115 17.1544 16.3661 17.1574 16.3215 17.1515C16.2769 17.1456 16.2339 17.131 16.1949 17.1085C16.1559 17.086 16.1218 17.056 16.0944 17.0203C16.067 16.9845 16.047 16.9438 16.0353 16.9003L15.7696 15.908ZM8.32661 15.311C8.28314 15.2993 8.23778 15.2963 8.19314 15.3021C8.1485 15.308 8.10544 15.3225 8.06644 15.345C8.02744 15.3675 7.99326 15.3975 7.96584 15.4332C7.93843 15.4689 7.91833 15.5097 7.90668 15.5532L7.64089 16.5454C7.62923 16.5889 7.62625 16.6342 7.63211 16.6788C7.63798 16.7234 7.65257 16.7664 7.67506 16.8054C7.69754 16.8444 7.72749 16.8785 7.76317 16.9059C7.79886 16.9333 7.8396 16.9534 7.88305 16.965L8.5448 17.1425C8.58825 17.1541 8.63357 17.1571 8.67817 17.1512C8.72278 17.1454 8.76579 17.1308 8.80475 17.1083C8.84372 17.0858 8.87787 17.0559 8.90526 17.0202C8.93265 16.9845 8.95274 16.9437 8.96438 16.9003L9.23018 15.9077C9.24188 15.8642 9.24491 15.8188 9.23907 15.7742C9.23323 15.7296 9.21865 15.6865 9.19616 15.6475C9.17367 15.6085 9.14371 15.5743 9.10799 15.5469C9.07228 15.5195 9.03151 15.4994 8.98802 15.4877L8.32627 15.3107L8.32661 15.311ZM12.8431 16.8578C12.8431 16.9487 12.807 17.0358 12.7427 17.1C12.6785 17.1643 12.5914 17.2003 12.5006 17.2003C12.4097 17.2003 12.3226 17.1643 12.2584 17.1C12.1941 17.0358 12.158 16.9487 12.158 16.8578C12.158 16.767 12.1941 16.6799 12.2584 16.6156C12.3226 16.5514 12.4097 16.5153 12.5006 16.5153C12.5914 16.5153 12.6785 16.5514 12.7427 16.6156C12.807 16.6799 12.8431 16.767 12.8431 16.8578Z" fill="#0333FF"/>
</g>
<defs>
<clipPath id="clip0_2586_42677">
<rect width="13.8889" height="13.8889" fill="white" transform="translate(5.55554 5.55469)"/>
</clipPath>
</defs>
</svg>
