<svg width="34" height="40" viewBox="0 0 34 40" fill="none" xmlns="http://www.w3.org/2000/svg">
<path d="M16.9999 19.9941C18.1458 19.9941 19.127 19.6022 19.9437 18.8184C20.7589 18.0359 21.1666 17.0948 21.1666 15.9951C21.1666 14.8954 20.7589 13.9536 19.9437 13.1698C19.127 12.3873 18.1458 11.9961 16.9999 11.9961C15.8541 11.9961 14.8735 12.3873 14.0583 13.1698C13.2416 13.9536 12.8333 14.8954 12.8333 15.9951C12.8333 17.0948 13.2416 18.0359 14.0583 18.8184C14.8735 19.6022 15.8541 19.9941 16.9999 19.9941ZM16.9999 34.6905C21.236 30.9581 24.3784 27.5669 26.427 24.517C28.4756 21.4684 29.4999 18.7611 29.4999 16.395C29.4999 12.7626 28.293 9.78796 25.8791 7.47119C23.4666 5.15576 20.5069 3.99804 16.9999 3.99804C13.493 3.99804 10.5326 5.15576 8.11867 7.47119C5.70617 9.78796 4.49992 12.7626 4.49992 16.395C4.49992 18.7611 5.52422 21.4684 7.57283 24.517C9.62145 27.5669 12.7638 30.9581 16.9999 34.6905ZM16.9999 39.9892C11.4096 35.4237 7.23464 31.1827 4.47492 27.2663C1.71381 23.3513 0.333252 19.7275 0.333252 16.395C0.333252 11.3962 2.00895 7.41387 5.36034 4.44793C8.71034 1.48199 12.5902 -0.000976562 16.9999 -0.000976562C21.4096 -0.000976562 25.2895 1.48199 28.6395 4.44793C31.9909 7.41387 33.6666 11.3962 33.6666 16.395C33.6666 19.7275 32.2867 23.3513 29.527 27.2663C26.7659 31.1827 22.5902 35.4237 16.9999 39.9892Z" fill="white"/>
</svg>
