<svg width="60" height="60" viewBox="0 0 60 60" fill="none" xmlns="http://www.w3.org/2000/svg">
<g clip-path="url(#clip0_921_5490)">
<path d="M29.8687 15.0308H29.8689C32.1004 15.0303 34.2752 15.5085 35.8151 16.3969C37.3203 17.2653 38.111 18.4401 38.0051 19.9294L36.8094 28.5958C36.8094 28.5958 36.8094 28.5958 36.8094 28.5958C36.7204 29.2407 36.4472 30.1041 36.0413 30.7805C35.6024 31.5117 35.2119 31.71 34.9872 31.71H34.8762H33.9567L33.8797 32.6263L32.6035 47.8096C32.6035 47.8096 32.6035 47.8096 32.6035 47.8097C32.5941 47.9217 32.5504 47.9973 32.5126 48.036C32.4815 48.068 32.4497 48.0829 32.4 48.0829H27.6C27.5503 48.0829 27.5185 48.068 27.4874 48.036C27.4496 47.9973 27.4059 47.9217 27.3965 47.8097C27.3965 47.8096 27.3965 47.8096 27.3965 47.8096L26.1203 32.6263L26.0433 31.71H25.1238H25.0128C24.7876 31.71 24.3972 31.5116 23.9585 30.7807C23.5527 30.1045 23.2796 29.2411 23.1906 28.5958L23.1906 28.5958L21.9917 19.9066C21.8119 18.4143 22.5433 17.2541 23.9974 16.3933C25.4884 15.5107 27.6359 15.0311 29.8687 15.0308Z" stroke="#0333FF" stroke-width="2"/>
<path d="M30.0144 30.2764L29.9856 30.3513C29.9952 30.3287 30.0018 30.3055 30.0114 30.2829L30.0144 30.2764ZM20.4036 41.0701C11.928 42.2572 6 45.097 6 49.2773C6 54.9082 15.9048 59.4728 30 59.4728C44.0952 59.4728 54 54.9082 54 49.2773C54 45.097 48.0726 42.2572 39.5976 41.0701L38.4234 43.0517C44.811 43.9302 49.2 45.7762 49.2 47.9184C49.2 50.9218 40.6038 53.356 30 53.356C19.3962 53.356 10.8 50.9218 10.8 47.9184C10.7994 45.7833 15.1596 43.9391 21.567 43.0571C21.18 42.3946 20.7906 41.7332 20.403 41.0701H20.4036Z" fill="#0333FF"/>
<path d="M35.3 6.24464C35.3 9.13287 32.9354 11.4893 30 11.4893C27.0645 11.4893 24.7 9.13287 24.7 6.24464C24.7 3.35641 27.0645 1 30 1C32.9354 1 35.3 3.35641 35.3 6.24464Z" stroke="#0333FF" stroke-width="2"/>
</g>
<defs>
<clipPath id="clip0_921_5490">
<rect width="60" height="59.4728" fill="white"/>
</clipPath>
</defs>
</svg>
