<svg width="25" height="33" viewBox="0 0 25 33" fill="none" xmlns="http://www.w3.org/2000/svg">
<path fill-rule="evenodd" clip-rule="evenodd" d="M12.5002 31.9306C13.7315 31.9306 19.595 24.5671 21.0408 22.2215C23.2633 18.6159 24.6354 16.4828 24.6354 12.5024C24.6354 5.80031 19.2023 0.367188 12.5002 0.367188C5.79811 0.367188 0.36499 5.80031 0.36499 12.5024C0.36499 16.5035 1.63642 18.6224 3.85149 22.2215C5.39535 24.73 11.2689 31.9306 12.5002 31.9306Z" fill="#FFBD3D"/>
<path fill-rule="evenodd" clip-rule="evenodd" d="M12.9438 32.1723C12.813 32.2366 12.6587 32.293 12.5 32.293C12.3431 32.293 12.1898 32.2384 12.0589 32.1755C11.9221 32.1097 11.7762 32.0183 11.6256 31.9104C11.3242 31.6943 10.9737 31.39 10.5944 31.0277C9.83399 30.3016 8.92727 29.313 8.01612 28.252C6.19662 26.1334 4.32762 23.6891 3.54062 22.4103C1.32357 18.808 0 16.6122 0 12.5C0 5.59644 5.59644 0 12.5 0C19.4036 0 25 5.59644 25 12.5C25 16.495 23.6399 18.7 21.5136 22.147C21.4599 22.234 21.4058 22.3219 21.3511 22.4105C20.6141 23.6063 18.7731 26.0497 16.9687 28.1885C16.0651 29.2594 15.1629 30.2633 14.4053 31.0021C14.0273 31.3708 13.6777 31.681 13.3768 31.9014C13.2266 32.0116 13.0808 32.105 12.9438 32.1723ZM21.0406 22.2191C19.5948 24.5647 13.7313 31.9282 12.5 31.9282C11.2687 31.9282 5.39516 24.7276 3.85129 22.2191C1.63623 18.62 0.364793 16.5011 0.364793 12.5C0.364793 5.79791 5.79791 0.364793 12.5 0.364793C19.2021 0.364793 24.6352 5.79791 24.6352 12.5C24.6352 16.3908 23.3242 18.5165 21.1894 21.9777C21.1402 22.0575 21.0906 22.1379 21.0406 22.2191Z" fill="white"/>
<path fill-rule="evenodd" clip-rule="evenodd" d="M12.6562 20.9395C17.2299 20.9395 20.9375 17.2318 20.9375 12.6582C20.9375 8.0846 17.2299 4.37695 12.6562 4.37695C8.08264 4.37695 4.375 8.0846 4.375 12.6582C4.375 17.2318 8.08264 20.9395 12.6562 20.9395Z" fill="white"/>
<g clip-path="url(#clip0_2586_42632)">
<path d="M8.61112 17.0385H10.5556V13.1496H14.4444V17.0385H16.3889V11.2052L12.5 8.28848L8.61112 11.2052V17.0385ZM8.61112 18.3348C8.25463 18.3348 7.94957 18.208 7.69593 17.9543C7.44186 17.7002 7.31482 17.395 7.31482 17.0385V11.2052C7.31482 10.9999 7.36084 10.8055 7.45287 10.6218C7.54448 10.4382 7.6713 10.2869 7.83334 10.1681L11.7222 7.25145C11.8411 7.16503 11.9653 7.10021 12.0949 7.057C12.2245 7.01379 12.3596 6.99219 12.5 6.99219C12.6404 6.99219 12.7755 7.01379 12.9051 7.057C13.0347 7.10021 13.159 7.16503 13.2778 7.25145L17.1667 10.1681C17.3287 10.2869 17.4557 10.4382 17.5478 10.6218C17.6394 10.8055 17.6852 10.9999 17.6852 11.2052V17.0385C17.6852 17.395 17.5584 17.7002 17.3047 17.9543C17.0507 18.208 16.7454 18.3348 16.3889 18.3348H13.1482V14.4459H11.8519V18.3348H8.61112Z" fill="#FFBD3D"/>
</g>
<defs>
<clipPath id="clip0_2586_42632">
<rect width="11.1111" height="12.2222" fill="white" transform="translate(6.94446 6.94531)"/>
</clipPath>
</defs>
</svg>
