<svg width="25" height="33" viewBox="0 0 25 33" fill="none" xmlns="http://www.w3.org/2000/svg">
<path fill-rule="evenodd" clip-rule="evenodd" d="M12.5002 31.9306C13.7315 31.9306 19.595 24.5671 21.0408 22.2215C23.2633 18.6159 24.6354 16.4828 24.6354 12.5024C24.6354 5.80031 19.2023 0.367188 12.5002 0.367188C5.79811 0.367188 0.36499 5.80031 0.36499 12.5024C0.36499 16.5035 1.63642 18.6224 3.85149 22.2215C5.39535 24.73 11.2689 31.9306 12.5002 31.9306Z" fill="#00AB4C"/>
<path fill-rule="evenodd" clip-rule="evenodd" d="M12.9438 32.1723C12.813 32.2366 12.6587 32.293 12.5 32.293C12.3431 32.293 12.1898 32.2384 12.0589 32.1755C11.9221 32.1097 11.7762 32.0183 11.6256 31.9104C11.3242 31.6943 10.9737 31.39 10.5944 31.0277C9.83399 30.3016 8.92727 29.313 8.01612 28.252C6.19662 26.1334 4.32762 23.6891 3.54062 22.4103C1.32357 18.808 0 16.6122 0 12.5C0 5.59644 5.59644 0 12.5 0C19.4036 0 25 5.59644 25 12.5C25 16.495 23.6399 18.7 21.5136 22.147C21.4599 22.234 21.4058 22.3219 21.3511 22.4105C20.6141 23.6063 18.7731 26.0497 16.9687 28.1885C16.0651 29.2594 15.1629 30.2633 14.4053 31.0021C14.0273 31.3708 13.6777 31.681 13.3768 31.9014C13.2266 32.0116 13.0808 32.105 12.9438 32.1723ZM21.0406 22.2191C19.5948 24.5647 13.7313 31.9282 12.5 31.9282C11.2687 31.9282 5.39516 24.7276 3.85129 22.2191C1.63623 18.62 0.364793 16.5011 0.364793 12.5C0.364793 5.79791 5.79791 0.364793 12.5 0.364793C19.2021 0.364793 24.6352 5.79791 24.6352 12.5C24.6352 16.3908 23.3242 18.5165 21.1894 21.9777C21.1402 22.0575 21.0906 22.1379 21.0406 22.2191Z" fill="white"/>
<path fill-rule="evenodd" clip-rule="evenodd" d="M12.6564 20.9395C17.23 20.9395 20.9376 17.2318 20.9376 12.6582C20.9376 8.0846 17.23 4.37695 12.6564 4.37695C8.08276 4.37695 4.37512 8.0846 4.37512 12.6582C4.37512 17.2318 8.08276 20.9395 12.6564 20.9395Z" fill="white"/>
<g clip-path="url(#clip0_2586_42542)">
<path d="M17.9122 12.922C17.8506 12.9695 17.7749 12.9947 17.6971 12.9937C17.6415 12.9937 17.5866 12.9807 17.5369 12.9559C17.4871 12.931 17.4438 12.8949 17.4104 12.8503C17.1944 12.56 16.9132 12.3243 16.5895 12.1625C16.2657 12.0006 15.9085 11.917 15.5466 11.9184C15.4515 11.9184 15.3604 11.8807 15.2932 11.8135C15.2259 11.7462 15.1882 11.6551 15.1882 11.56C15.1882 11.465 15.2259 11.3738 15.2932 11.3066C15.3604 11.2394 15.4515 11.2016 15.5466 11.2016C15.7506 11.2014 15.9503 11.1431 16.1225 11.0337C16.2946 10.9242 16.432 10.768 16.5187 10.5834C16.6055 10.3988 16.6379 10.1933 16.6122 9.99089C16.5865 9.78853 16.5037 9.59764 16.3736 9.44053C16.2435 9.28341 16.0714 9.16655 15.8774 9.10357C15.6834 9.0406 15.4754 9.03412 15.2779 9.08488C15.0803 9.13565 14.9012 9.24157 14.7616 9.39027C14.622 9.53898 14.5275 9.72434 14.4893 9.92471C14.4823 9.97262 14.4657 10.0186 14.4405 10.06C14.4153 10.1013 14.3819 10.1371 14.3425 10.1652C14.3031 10.1932 14.2583 10.2131 14.211 10.2234C14.1637 10.2337 14.1148 10.2344 14.0673 10.2253C14.0197 10.2162 13.9745 10.1976 13.9343 10.1705C13.8942 10.1435 13.8599 10.1086 13.8336 10.0679C13.8073 10.0273 13.7895 9.98171 13.7813 9.934C13.7731 9.88629 13.7747 9.8374 13.7859 9.7903C13.839 9.51155 13.9576 9.24941 14.1319 9.02545C14.3062 8.8015 14.5312 8.62214 14.7883 8.50213C15.0455 8.38212 15.3275 8.32489 15.6111 8.33516C15.8947 8.34542 16.1718 8.42289 16.4196 8.56118C16.6674 8.69947 16.8788 8.89463 17.0364 9.1306C17.1941 9.36657 17.2934 9.6366 17.3263 9.91847C17.3592 10.2003 17.3246 10.486 17.2255 10.7519C17.1264 11.0178 16.9656 11.2564 16.7563 11.448C17.2434 11.6592 17.6667 11.9944 17.9839 12.4202C18.0121 12.4579 18.0327 12.5007 18.0444 12.5463C18.056 12.5919 18.0586 12.6394 18.052 12.686C18.0453 12.7326 18.0295 12.7774 18.0056 12.8179C17.9816 12.8584 17.9499 12.8938 17.9122 12.922ZM15.4032 15.8835C15.4437 15.9692 15.449 16.0674 15.418 16.157C15.387 16.2465 15.3222 16.3205 15.2375 16.3629C15.188 16.3849 15.1348 16.3971 15.0807 16.3987C15.0135 16.3983 14.9478 16.3792 14.8908 16.3436C14.8339 16.308 14.7879 16.2573 14.7581 16.1971C14.5514 15.7743 14.2302 15.4181 13.831 15.1689C13.4318 14.9197 12.9706 14.7875 12.5 14.7875C12.0294 14.7875 11.5683 14.9197 11.1691 15.1689C10.7699 15.4181 10.4486 15.7743 10.2419 16.1971C10.2214 16.2395 10.1927 16.2774 10.1574 16.3087C10.1222 16.34 10.0811 16.364 10.0366 16.3794C9.9921 16.3948 9.94497 16.4012 9.89795 16.3984C9.85092 16.3956 9.80492 16.3835 9.76256 16.3629C9.67779 16.3205 9.61299 16.2465 9.58201 16.157C9.55103 16.0674 9.55634 15.9692 9.59679 15.8835C9.92989 15.1976 10.4949 14.6517 11.1918 14.3423C10.8351 14.0689 10.573 13.6906 10.4423 13.2605C10.3117 12.8305 10.3191 12.3703 10.4634 11.9447C10.6078 11.5191 10.8818 11.1494 11.2471 10.8875C11.6124 10.6257 12.0506 10.4849 12.5 10.4849C12.9495 10.4849 13.3876 10.6257 13.7529 10.8875C14.1182 11.1494 14.3923 11.5191 14.5366 11.9447C14.681 12.3703 14.6883 12.8305 14.5577 13.2605C14.4271 13.6906 14.165 14.0689 13.8083 14.3423C14.5052 14.6517 15.0701 15.1976 15.4032 15.8835ZM12.5 14.069C12.7836 14.069 13.0608 13.9849 13.2965 13.8274C13.5323 13.6698 13.7161 13.4459 13.8246 13.1839C13.9331 12.922 13.9615 12.6337 13.9062 12.3556C13.8508 12.0775 13.7143 11.822 13.5138 11.6215C13.3133 11.421 13.0578 11.2845 12.7797 11.2291C12.5016 11.1738 12.2133 11.2022 11.9514 11.3107C11.6894 11.4192 11.4655 11.603 11.3079 11.8388C11.1504 12.0745 11.0663 12.3517 11.0663 12.6353C11.0675 13.0152 11.2189 13.3791 11.4875 13.6477C11.7562 13.9164 12.1201 14.0678 12.5 14.069ZM9.81184 11.56C9.81184 11.465 9.77408 11.3738 9.70686 11.3066C9.63965 11.2394 9.54848 11.2016 9.45342 11.2016C9.24943 11.2014 9.04971 11.1431 8.87758 11.0337C8.70544 10.9242 8.568 10.768 8.48128 10.5834C8.39457 10.3988 8.36217 10.1933 8.38786 9.99089C8.41356 9.78853 8.49628 9.59764 8.62639 9.44053C8.75649 9.28341 8.9286 9.16655 9.12262 9.10357C9.31665 9.0406 9.52459 9.03412 9.72216 9.08488C9.91973 9.13565 10.0988 9.24157 10.2384 9.39027C10.3781 9.53898 10.4725 9.72434 10.5108 9.92471C10.5177 9.97262 10.5343 10.0186 10.5595 10.06C10.5848 10.1013 10.6181 10.1371 10.6575 10.1652C10.697 10.1932 10.7417 10.2131 10.789 10.2234C10.8363 10.2337 10.8852 10.2344 10.9327 10.2253C10.9803 10.2162 11.0255 10.1976 11.0657 10.1705C11.1058 10.1435 11.1401 10.1086 11.1664 10.0679C11.1927 10.0273 11.2105 9.98171 11.2187 9.934C11.2269 9.88629 11.2254 9.8374 11.2142 9.7903C11.161 9.51155 11.0424 9.24941 10.8681 9.02545C10.6938 8.8015 10.4688 8.62214 10.2117 8.50213C9.95453 8.38212 9.67256 8.32489 9.38896 8.33516C9.10537 8.34542 8.82827 8.42289 8.58047 8.56118C8.33266 8.69947 8.12125 8.89463 7.96361 9.1306C7.80598 9.36657 7.70663 9.6366 7.67375 9.91847C7.64088 10.2003 7.6754 10.486 7.7745 10.7519C7.87359 11.0178 8.03442 11.2564 8.24374 11.448C7.75661 11.6592 7.33334 11.9944 7.01614 12.4202C6.95911 12.4963 6.93462 12.5919 6.94806 12.686C6.96151 12.7801 7.01178 12.865 7.08783 12.922C7.14939 12.9695 7.22517 12.9947 7.30288 12.9937C7.35853 12.9937 7.4134 12.9807 7.46317 12.9559C7.51294 12.931 7.55623 12.8949 7.58962 12.8503C7.80565 12.56 8.08685 12.3243 8.41057 12.1625C8.73429 12.0006 9.09149 11.917 9.45342 11.9184C9.54848 11.9184 9.63965 11.8807 9.70686 11.8135C9.77408 11.7462 9.81184 11.6551 9.81184 11.56Z" fill="#00AB4C"/>
</g>
<defs>
<clipPath id="clip0_2586_42542">
<rect width="11.1111" height="8.88889" fill="white" transform="translate(6.94446 8.33398)"/>
</clipPath>
</defs>
</svg>
