<svg width="48" height="43" viewBox="0 0 48 43" fill="none" xmlns="http://www.w3.org/2000/svg">
<path d="M44.7024 14.4847L41.4835 4.82589C41.0166 3.41996 40.1185 2.19694 38.9168 1.33061C37.715 0.464273 36.2709 -0.00131343 34.7894 2.783e-06H13.3353C11.8539 -0.00131343 10.4097 0.464273 9.20798 1.33061C8.00626 2.19694 7.10813 3.41996 6.64119 4.82589L3.42237 14.4847C2.56734 14.8435 1.83714 15.4465 1.32318 16.2183C0.809223 16.99 0.534345 17.8963 0.532959 18.8235V30.5882C0.532959 32.36 1.52825 33.8871 2.97766 34.6894C2.94708 34.8447 2.8859 34.9859 2.8859 35.1482V40C2.8859 40.624 3.1338 41.2225 3.57506 41.6638C4.01632 42.105 4.6148 42.3529 5.23884 42.3529H7.59178C8.21582 42.3529 8.8143 42.105 9.25556 41.6638C9.69682 41.2225 9.94472 40.624 9.94472 40V35.2941H38.18V40C38.18 40.624 38.4279 41.2225 38.8692 41.6638C39.3104 42.105 39.9089 42.3529 40.533 42.3529H42.8859C43.5099 42.3529 44.1084 42.105 44.5497 41.6638C44.9909 41.2225 45.2388 40.624 45.2388 40V35.1482C45.2388 34.9859 45.1777 34.8424 45.1471 34.6894C45.8845 34.2874 46.5004 33.6947 46.9305 32.9732C47.3605 32.2518 47.5889 31.4281 47.5918 30.5882V18.8235C47.5918 16.8729 46.3965 15.1976 44.7024 14.4847ZM5.23884 30.5882V18.8235H42.8859L42.8906 30.5882H5.23884ZM13.3353 4.70588H34.7871C35.8012 4.70588 36.7 5.35059 37.02 6.3153L39.6224 14.1176H8.50237L11.1024 6.3153C11.2585 5.84658 11.5582 5.43889 11.959 5.15002C12.3597 4.86115 12.8413 4.70577 13.3353 4.70588Z" fill="#0333FF"/>
</svg>
